<?xml version="1.0" encoding="utf-8"?>
<!-- Generator: Adobe Illustrator 19.2.1, SVG Export Plug-In . SVG Version: 6.00 Build 0)  -->
<svg version="1.1" id="layer" xmlns="http://www.w3.org/2000/svg" xmlns:xlink="http://www.w3.org/1999/xlink" x="0px" y="0px"
	 viewBox="0 0 652 652" style="enable-background:new 0 0 652 652;" xml:space="preserve">
<style type="text/css">
	.st0{fill:#78A22F;}
	.st1{fill:#FFFFFF;}
	.st2{clip-path:url(#SVGID_2_);fill:url(#SVGID_3_);}
</style>
<polygon class="st0" points="569.7,392.7 565,392.7 565,389 577.6,389 577.6,392.7 572.8,392.7 572.8,413.2 569.7,413.2 "/>
<g>
	<path class="st0" d="M593.8,403.3c-0.1-3.1-0.2-6.9-0.2-10.2h-0.1c-0.6,2.9-1.2,6.2-2,9.3l-2.4,10.5h-2.3l-2.2-10.3
		c-0.6-3.1-1.2-6.4-1.7-9.4h-0.1c-0.1,3.2-0.2,7-0.3,10.3l-0.4,9.7h-2.9l1.1-24.2h4l2.2,9.7c0.6,2.8,1.1,5.7,1.5,8.4h0.1
		c0.4-2.6,1-5.6,1.7-8.4l2.3-9.7h4l1,24.2h-3L593.8,403.3z"/>
	<path class="st0" d="M90.6,417.9L37,438.4l49.4,8.2l-24.5,40.2l131.2-46.1C153.9,449.6,90.6,417.9,90.6,417.9"/>
	<path class="st1" d="M191.2,434.1c-10.3,2.3-20.3,4.5-29.6,6.5c-22.8,4.9-41.6,9-55.1,13.4l-8.1-37.3l-1.8-8.5l-9,3.4l-53.7,20.5
		l-23.4,8.9l25.1,4.2l38.9,6.4l-19.4,32l-10.1,16.6l20-7l131.2-46.1L191.2,434.1z M86.4,446.6L37,438.4l53.7-20.5
		c0,0,63.2,31.7,102.5,22.8L61.9,486.8L86.4,446.6z"/>
	<path class="st0" d="M550.7,417.9l-15.3,37.1c0,0-47.9-5.4-87.2-14.3l131.2,46.1L555,446.6l49.4-8.2L550.7,417.9z"/>
	<path class="st1" d="M630.9,441.1l-23.4-8.9l-53.7-20.5l-8.5-3.3l-2.2,7.9l-10.7,38c-14.1-5.2-33.3-9.4-59-15.1
		c-7.2-1.6-15-3.3-23.2-5.2l-4.9,13.1l131.2,46.1l20,7l-10.1-16.6l-19.4-32l38.8-6.4L630.9,441.1z M448.2,440.8
		c39.3,8.9,102.5-22.8,102.5-22.8l53.7,20.5l-49.4,8.2l24.4,40.2L448.2,440.8z"/>
	<path class="st1" d="M568.3,321.4c0-13.7-4.9-26.4-9.9-37.1c1.7-16.8,3.6-34.2-2.4-50.1c-4.8-12.8-14-23.1-23.5-32.4
		c-2.8-10.6-6.3-18.7-11.3-25.4c-7.8-10.7-18.8-17.8-29.6-23.8c-8.5-14.7-17.2-29.9-31.7-39.5c-10.6-7-22.8-10-37.7-12.2
		c-8.5-7-16.3-11.5-24.4-14.1c-6.2-2-12.9-3-20.7-3c-6.2,0-12.4,0.6-17.4,1.3l-0.8-0.4c-14.6-6.5-29.7-13.2-45.6-13.2
		c-0.8,0-1.5,0-2.3,0.1c-13.9,0.6-26.6,6.2-38.4,12.4c-2.3-0.2-4.5-0.2-6.6-0.2c-7.8,0-14.5,1-20.7,3c-12.8,4.1-23,12.4-32.1,20.9
		c-16.5,3.5-33.6,7.2-47.1,17.8c-10.1,8-16.8,18.8-23.5,32.4c-9.2,5.9-15.8,11.8-20.7,18.6c-7.7,10.6-11.1,23.2-13.5,35.4
		c-11.4,12.5-23,25.5-27.8,42.5c-3.8,13.5-2.4,27.3-0.2,40.1c-3.8,10-5.6,18.6-5.6,27c0,13.7,4.9,26.3,9.9,37.1v0
		c-1.7,16.8-3.5,34.2,2.4,50.1c4.8,12.8,14,23.2,23.5,32.4c2.8,10.6,6.4,18.7,11.3,25.4c7.8,10.7,18.7,17.8,29.6,23.8
		c8.4,14.7,17.2,29.9,31.7,39.5c10.6,7,22.8,10,37.7,12.2c8.5,7,16.3,11.5,24.4,14.1c6.2,2,12.9,3,20.7,3c6.2,0,12.4-0.6,17.4-1.2
		l0.9,0.4c14.6,6.5,29.7,13.2,45.5,13.2c0.8,0,1.6,0,2.4,0c13.9-0.6,26.6-6.3,38.4-12.5c2.3,0.2,4.5,0.2,6.6,0.2
		c7.8,0,14.5-1,20.7-3c12.8-4.2,23-12.4,32.1-21c16.5-3.5,33.6-7.1,47.1-17.8c10.7-8.4,17.7-20.4,23.5-32.4
		c9.2-5.9,15.8-11.8,20.7-18.6c7.7-10.6,11.1-23.2,13.5-35.3c11.4-12.6,23-25.6,27.8-42.5c3.8-13.5,2.4-27.2,0.2-40.1
		C566.5,338.5,568.3,329.8,568.3,321.4"/>
	<path class="st0" d="M562.4,321.4c0-12.7-4.6-24.5-10.1-36.1c1.7-17,3.8-34-1.9-49.1c-4.5-12.2-13.5-22-23.3-31.4
		c-2.2-9.1-5.4-17.7-10.7-25c-7.3-10-17.9-16.8-29.1-22.9c-8.5-14.8-16.9-29.9-30.6-39c-10.6-7-23.5-9.6-36.9-11.5
		c-7.2-6.1-14.9-11.3-23.7-14.1c-11.6-3.8-24.3-2.9-37.2-1.3c-15.9-7-31.4-14.3-47.5-13.6C298.1,78,285.9,83.6,274,90
		c-9.3-0.7-18.3-0.4-26.8,2.4c-11.9,3.9-21.7,11.9-31.1,20.8c-16.6,3.5-33.4,6.9-46.2,17c-10.1,8-16.7,19.6-22.6,31.8
		c-7.9,4.9-15.1,10.6-20.5,17.9c-7.2,9.9-10.4,22-12.8,34.6c-11.4,12.5-23.1,25.2-27.6,41.4c-3.5,12.7-2.1,26,0.2,39.1
		c-3.4,8.5-5.8,17.3-5.8,26.5c0,12.7,4.6,24.5,10.1,36.1c-1.8,17-3.8,34,1.9,49.1c4.5,12.2,13.5,22,23.3,31.4
		c2.2,9.1,5.4,17.7,10.7,25c7.3,10,17.9,16.8,29.1,22.9c8.5,14.7,16.9,29.8,30.6,39c10.6,7,23.5,9.6,37,11.5
		c7.2,6.1,14.9,11.3,23.7,14.1c11.6,3.8,24.2,3,37.2,1.3c15.9,7,31.5,14.3,47.6,13.7c13.2-0.6,25.4-6.1,37.3-12.6
		c9.3,0.7,18.3,0.4,26.8-2.4c11.9-3.9,21.7-11.9,31.1-20.8c16.6-3.5,33.5-6.9,46.2-17c10.1-8,16.7-19.6,22.6-31.9
		c7.9-4.9,15.1-10.6,20.5-17.9c7.2-9.9,10.4-22,12.8-34.6c11.3-12.5,23.1-25.2,27.6-41.3c3.6-12.7,2.1-26-0.2-39.1
		C560,339.4,562.4,330.6,562.4,321.4"/>
	<path class="st1" d="M321.6,111.4c-115.8,0-210,94.2-210,210c0,115.8,94.2,210,210,210c115.8,0,210-94.2,210-210
		C531.6,205.7,437.4,111.4,321.6,111.4"/>
	<path class="st0" d="M321.6,117.2c-112.6,0-204.2,91.6-204.2,204.2c0,112.6,91.6,204.2,204.2,204.2c112.6,0,204.2-91.6,204.2-204.2
		C525.8,208.8,434.2,117.2,321.6,117.2"/>
</g>
<g>
	<defs>
		<path id="SVGID_1_" d="M127.7,321.4c0,106.9,87,194,193.9,194c106.9,0,193.9-87,193.9-194c0-106.9-87-193.9-193.9-193.9
			C214.7,127.5,127.7,214.5,127.7,321.4"/>
	</defs>
	<clipPath id="SVGID_2_">
		<use xlink:href="#SVGID_1_"  style="overflow:visible;"/>
	</clipPath>
	
		<linearGradient id="SVGID_3_" gradientUnits="userSpaceOnUse" x1="-305.4247" y1="703.1967" x2="-295.0393" y2="703.1967" gradientTransform="matrix(37.3456 0 0 -37.3456 11533.9375 26582.7598)">
		<stop  offset="0" style="stop-color:#CB2129"/>
		<stop  offset="0.7686" style="stop-color:#63181A"/>
		<stop  offset="1" style="stop-color:#431515"/>
	</linearGradient>
	<rect x="127.7" y="127.5" class="st2" width="387.8" height="387.9"/>
</g>
<g>
	<path class="st1" d="M516.9,321.4c0,107.9-87.4,195.3-195.3,195.3c-107.9,0-195.3-87.4-195.3-195.3c0-107.9,87.4-195.3,195.3-195.3
		C429.5,126.1,516.9,213.6,516.9,321.4"/>
	<path class="st1" d="M464.4,321.4c0,78.9-63.9,142.8-142.8,142.8c-78.9,0-142.8-63.9-142.8-142.8c0-78.9,63.9-142.8,142.8-142.8
		C400.5,178.6,464.4,242.6,464.4,321.4"/>
	<path class="st0" d="M458.1,321.4c0,75.4-61.1,136.5-136.5,136.5c-75.4,0-136.5-61.1-136.5-136.5c0-75.4,61.1-136.5,136.5-136.5
		C397,184.9,458.1,246.1,458.1,321.4"/>
	<path class="st0" d="M207.5,187.2c-1.5-0.2-2.9,0-4.3,0.4s-2.6,1.2-3.7,2.2c-1.2,1.1-2,2.4-2.4,3.7c-0.4,1.4-0.6,2.7-0.4,4.1
		c0.1,1.4,0.5,2.8,1.2,4.1c0.7,1.3,1.5,2.5,2.5,3.6c1,1,2.2,1.9,3.5,2.6c1.3,0.7,2.6,1.1,4,1.3c1.4,0.2,2.7,0.1,4.1-0.3
		c1.4-0.4,2.6-1.1,3.7-2.2c1.1-1,1.8-2.2,2.3-3.7c0.5-1.4,0.7-2.8,0.6-4.3l5.5,5.8c-0.5,1.3-1.1,2.6-1.7,3.7
		c-0.7,1.2-1.5,2.2-2.5,3.2c-1.8,1.7-3.7,2.9-5.9,3.6c-2.2,0.7-4.3,1-6.5,0.9s-4.4-0.7-6.5-1.7c-2.1-1-4-2.3-5.6-4
		c-1.7-1.8-3-3.7-4-5.9c-0.9-2.2-1.5-4.4-1.6-6.6c-0.1-2.3,0.3-4.5,1.1-6.6c0.8-2.2,2.1-4.1,3.9-5.9c1-0.9,2.1-1.7,3.2-2.4
		c1.2-0.6,2.4-1.1,3.7-1.5L207.5,187.2z"/>
	<polygon class="st0" points="225.2,170.6 229.2,177 238.3,171.4 241.4,176.4 232.3,182 237.2,189.9 246.6,184.1 249.7,189.1 
		234.6,198.4 216.5,169.2 231.6,159.8 234.7,164.8 	"/>
	<path class="st0" d="M282.3,175.8l-7.6,2.8l-12.6-10.2l-0.1,0l4.7,13l-6.3,2.3l-11.7-32.4l8.5-3.1c1.6-0.6,3.1-0.9,4.6-1
		c1.5-0.1,2.8,0.1,4,0.5c1.2,0.4,2.3,1.2,3.3,2.2c1,1,1.8,2.4,2.4,4.1c0.4,1,0.6,2.1,0.7,3.2c0.1,1.1,0,2.2-0.3,3.2
		c-0.3,1-0.7,2-1.3,2.8c-0.6,0.9-1.4,1.6-2.5,2.1L282.3,175.8z M260.4,164l0.8-0.3c0.9-0.3,1.6-0.7,2.3-1.1c0.7-0.4,1.2-0.9,1.6-1.5
		c0.4-0.6,0.6-1.2,0.7-2c0.1-0.7-0.1-1.6-0.5-2.6c-0.4-1-0.8-1.7-1.3-2.3c-0.5-0.5-1.1-0.8-1.8-1c-0.7-0.2-1.4-0.2-2.1,0
		c-0.8,0.1-1.6,0.4-2.4,0.7l-0.9,0.3L260.4,164z"/>
	<polygon class="st0" points="302.1,172.5 295.4,173.5 291.2,145.2 284.3,146.3 283.4,140.5 303.8,137.4 304.7,143.2 297.8,144.2 	
		"/>
	<polygon class="st0" points="325.9,171.3 319.2,171.2 319.8,136.8 326.5,136.9 	"/>
	<polygon class="st0" points="350,144.9 348.7,152.4 358.3,154 357.4,159.8 347.8,158.2 345.3,173.1 338.7,172 344.3,138 
		361.2,140.9 360.2,146.6 	"/>
	
		<rect x="358.4" y="159.5" transform="matrix(0.3203 -0.9473 0.9473 0.3203 100.9753 466.5262)" class="st0" width="34.4" height="6.7"/>
	<polygon class="st0" points="404.4,162.8 400.8,169.5 410.3,174.5 407.5,179.7 398.1,174.7 393.7,182.9 403.5,188.1 400.8,193.3 
		385,184.9 401.2,154.5 416.9,162.9 414.2,168 	"/>
	<path class="st0" d="M433.2,173.5l7.3,6.2c1.9,1.6,3.3,3.4,4.3,5.4c1,2,1.5,4.1,1.6,6.2c0.1,2.1-0.2,4.2-1,6.3
		c-0.8,2.1-2,4.1-3.6,6c-1.6,1.8-3.4,3.3-5.3,4.4c-2,1-4,1.7-6.1,1.9c-2.1,0.2-4.2,0-6.3-0.7c-2.1-0.7-4.1-1.8-6-3.4l-7.2-6.2
		L433.2,173.5z M419.7,199.6l0.8,0.7c1.6,1.3,3.1,2.3,4.5,2.8c1.5,0.5,2.9,0.7,4.2,0.6c1.3-0.2,2.6-0.6,3.9-1.4
		c1.2-0.8,2.4-1.8,3.5-3.1c2.5-2.9,3.6-5.6,3.4-8.3c-0.2-2.7-1.8-5.3-4.7-7.8l-0.8-0.7L419.7,199.6z"/>
	<path class="st0" d="M202.4,460.2c0.2,1.3,0.9,2.8,2.1,3.7c1.5,1.2,3.2,0.9,4.5-0.6c1.2-1.4,1.2-2.8,0.2-5c-1.2-2.9-1.2-5.6,1-8.3
		c2.5-3.1,6.2-4,9-1.7c1.4,1.1,2.1,2.4,2.3,3.5l-2.8,2.3c-0.2-0.7-0.6-2-1.8-3c-1.5-1.2-3.1-0.6-4,0.5c-1.2,1.4-1,2.7,0,5.1
		c1.3,3.1,1,5.6-1.2,8.3c-2.5,3-6.2,4.4-9.5,1.6c-1.4-1.1-2.3-2.8-2.5-4L202.4,460.2z"/>
	<path class="st0" d="M220.8,479.1c-0.9,0-2.5-0.4-4.2-1.6c-4.4-3-4.3-8.8-0.1-14.9c4.5-6.6,10.4-8.3,14.6-5.4
		c1.6,1.1,2.5,2.5,2.7,3.2l-2.5,2.5c-0.4-0.9-1-1.8-2.2-2.6c-2.8-1.9-6.6-0.8-9.9,4c-3,4.4-3.2,8.4-0.2,10.5c1,0.7,2.3,1.1,3.2,1.2
		L220.8,479.1z"/>
	<path class="st0" d="M226.2,477.5c0.4,1.2,1.4,2.6,2.7,3.4c1.7,1,3.3,0.4,4.3-1.3c0.9-1.6,0.7-2.9-0.6-5c-1.7-2.6-2.1-5.3-0.4-8.3
		c2-3.4,5.5-4.9,8.6-3.1c1.6,0.9,2.4,2.1,2.9,3.1l-2.4,2.7c-0.3-0.7-0.9-1.9-2.3-2.7c-1.7-1-3.2-0.1-3.9,1.1c-0.9,1.6-0.5,2.8,0.8,5
		c1.7,2.8,1.9,5.4,0.1,8.4c-1.9,3.4-5.4,5.3-9.1,3.1c-1.5-0.9-2.7-2.4-3.1-3.6L226.2,477.5z"/>
	<path class="st0" d="M254.4,495.6c-1.2,0.1-3.4,0-5.5-0.9c-2.6-1.1-4.1-2.9-4.7-5.6c-0.6-2.5-0.1-5.7,1.4-9.1
		c3-7,8.4-10.1,13.5-7.9c1.9,0.8,3.1,2,3.6,2.8l-2,3c-0.6-0.9-1.5-1.8-3.1-2.5c-3.3-1.4-6.8,0.4-9,5.6c-2.2,5.1-1.3,9,1.9,10.3
		c1,0.4,1.8,0.6,2.3,0.4l2.4-5.5l-2.7-1.2l1.4-3.2l5.4,2.3L254.4,495.6z"/>
	<polygon class="st0" points="265.9,475.2 268.8,476.2 262.3,495.7 268.8,497.8 267.7,501.3 258.3,498.2 	"/>
	<path class="st0" d="M287.7,493.6c-1.9,7.9-6.3,11.6-10.8,10.5c-4.6-1.1-6.2-6.9-4.6-13.8c1.8-7.2,6.1-11.6,10.7-10.5
		C287.8,481.1,289.3,486.9,287.7,493.6 M275.5,491c-1.2,4.8-0.4,9,2.4,9.7c2.9,0.7,5.4-2.8,6.6-7.7c1.1-4.4,0.6-9-2.4-9.7
		C279.2,482.6,276.7,486.2,275.5,491"/>
	<path class="st0" d="M292.4,482.7c1-0.1,2.8-0.1,4.5,0.1c2.2,0.3,3.6,0.9,4.5,2.2c0.9,1,1.4,2.7,1.1,4.7c-0.3,2.2-1.6,4.1-3.5,4.8
		l0,0.1c1.7,0.9,3,3.1,2.5,6.4c-0.3,2.1-1.2,3.7-2.3,4.7c-1.4,1.3-3.4,1.8-6.5,1.3c-1.7-0.2-2.9-0.6-3.6-0.9L292.4,482.7z
		 M292.4,503.6c0.4,0.1,0.9,0.2,1.6,0.3c1.9,0.3,3.8-0.5,4.2-3.5c0.4-2.8-1.1-4.2-3.2-4.5l-1.5-0.2L292.4,503.6z M294,492.6l1.5,0.2
		c2.1,0.3,3.5-0.9,3.8-3c0.3-2.2-0.7-3.4-2.6-3.7c-0.9-0.1-1.4-0.1-1.7-0.1L294,492.6z"/>
	<path class="st0" d="M308.3,501.8l-1.8,6.8l-3.1-0.2l6.7-23.8l3.9,0.2l4,24.5l-3.3-0.2l-1.1-6.9L308.3,501.8z M313.2,498.7l-1-6
		c-0.2-1.5-0.4-3.1-0.6-4.6h-0.1c-0.3,1.4-0.7,3.1-1,4.5l-1.6,5.9L313.2,498.7z"/>
	<polygon class="st0" points="321.1,484.9 324.1,484.9 324.6,505.4 331.5,505.2 331.5,508.9 321.6,509.1 	"/>
	<path class="st0" d="M340.3,503.4c1.1,0.7,2.7,1.2,4.2,1c1.9-0.2,2.9-1.7,2.6-3.7c-0.2-1.8-1.2-2.8-3.5-3.6
		c-2.9-1.1-4.9-2.9-5.4-6.4c-0.5-3.9,1.4-7.2,5-7.7c1.8-0.2,3.2,0.2,4.1,0.7l-0.3,3.6c-0.6-0.4-1.9-0.9-3.4-0.7
		c-1.9,0.2-2.6,1.8-2.4,3.2c0.2,1.8,1.3,2.6,3.7,3.5c3.1,1.2,4.7,3.1,5.2,6.6c0.5,3.8-1.1,7.4-5.4,8c-1.7,0.2-3.7-0.3-4.7-0.9
		L340.3,503.4z"/>
	<polygon class="st0" points="362,493.8 355.8,495.1 357.3,502 364.1,500.6 364.9,504.2 355,506.2 350.1,482.5 359.7,480.5 
		360.4,484.1 353.9,485.4 355.1,491.5 361.3,490.3 	"/>
	<path class="st0" d="M362.2,480.3c1-0.6,2.6-1.3,4.3-1.8c2.3-0.7,4-0.6,5.5,0.4c1.2,0.8,2.2,2.3,2.7,4.3c0.9,3,0.1,5.4-1.2,6.7
		l0,0.1c1.3,0.3,2.5,1.7,3.5,3.8c1.3,2.7,2.5,5.3,3.1,6.1l-3,0.9c-0.4-0.6-1.4-2.4-2.7-5.2c-1.3-2.9-2.4-3.6-4.1-3.2l-1.5,0.4
		l2.8,9.6l-2.9,0.8L362.2,480.3z M368.1,489.7l1.7-0.5c2-0.6,2.8-2.5,2.1-4.8c-0.7-2.6-2.3-3.4-4.2-2.8c-0.9,0.3-1.5,0.5-1.7,0.7
		L368.1,489.7z"/>
	<path class="st0" d="M387.4,497.2l-13.8-20.6l3.1-1.2l6.1,9.4c1.7,2.6,3.2,5.1,4.7,7.7l0,0c-0.6-2.8-1.1-5.8-1.6-8.8l-1.7-11.2
		l3-1.2l3.3,24.7L387.4,497.2z"/>
	<polygon class="st0" points="391.3,469.3 401.5,491.3 398.7,492.6 388.6,470.6 	"/>
	<path class="st0" d="M415.9,483c-0.4,0.8-1.5,2-3.3,3c-4.7,2.5-9.8-0.2-13.3-6.7c-3.8-7-2.7-13.1,1.8-15.5c1.8-0.9,3.3-1.1,4.1-1
		l1.1,3.4c-0.9-0.1-2.1,0.1-3.3,0.7c-3,1.6-3.7,5.5-0.9,10.6c2.5,4.7,6,6.7,9.3,4.9c1.1-0.6,2-1.5,2.5-2.4L415.9,483z"/>
	<polygon class="st0" points="421.7,467.4 416.4,470.8 420.3,476.8 426.2,473 428.2,476 419.7,481.5 406.5,461.2 414.7,455.9 
		416.6,459 411.1,462.6 414.5,467.8 419.7,464.4 	"/>
	<path class="st0" d="M428.5,469.9c1.3,0.1,2.9-0.3,4.1-1.2c1.6-1.2,1.6-2.9,0.4-4.5c-1.1-1.5-2.4-1.8-4.8-1.4
		c-3.1,0.5-5.7-0.1-7.9-2.9c-2.4-3.1-2.4-6.9,0.5-9.1c1.4-1.1,2.8-1.5,3.9-1.5l1.6,3.3c-0.8,0-2.1,0.2-3.3,1.1
		c-1.5,1.2-1.3,2.9-0.4,4c1.1,1.5,2.4,1.6,5,1.2c3.3-0.5,5.7,0.3,7.8,3.1c2.3,3.1,2.8,7-0.7,9.6c-1.4,1.1-3.3,1.6-4.5,1.5
		L428.5,469.9z"/>
	<path class="st0" d="M82.9,368.9c7.1,29.6,14.2,59.2,21.3,88.8c70.7-17,143-25.5,215.2-25.5c72.2,0,144.5,8.5,215.2,25.5
		c7.1-29.6,14.2-59.2,21.3-88.8c-77.7-18.7-157.1-28-236.5-28C240.1,340.9,160.7,350.2,82.9,368.9"/>
	<path class="st1" d="M557.5,362.8c-77.8-18.7-157.9-28.2-238-28.2c-80.1,0-160.1,9.5-238,28.2l-6.1,1.5l1.5,6.1l1.4,6l19.9,82.7
		l1.5,6.1l6.1-1.5c69.9-16.8,141.8-25.3,213.8-25.3c71.9,0,143.8,8.5,213.8,25.3l6.1,1.5l1.5-6.1l19.9-82.7l1.4-6l1.5-6.1
		L557.5,362.8z M319.5,340.9c79.4,0,158.8,9.3,236.5,28c-7.1,29.6-14.2,59.2-21.3,88.8c-70.7-17-143-25.5-215.2-25.5
		c-72.2,0-144.5,8.5-215.2,25.5C97.1,428,90,398.4,82.9,368.9C160.7,350.2,240.1,340.9,319.5,340.9"/>
	<path class="st0" d="M388.8,300.2c-4.6,1.2-9.6,3-13.8,7.6c-3.4,3.6-8.4,11.3-6.3,14.2c2.5-3.4,7.5-7.3,11.1-8.4
		c-3.3,2-6.5,7.4-9,10.7c0.6,0.1,1.1,0.2,1.6,0.3c5.3-1.8,10.3-7.5,13.9-11.3c5-5.3,8.5-12.6,15.8-16.5
		C398.8,298.8,392.5,298.8,388.8,300.2"/>
	<path class="st0" d="M363.3,309.7c-3.6-3.1-8-4-10.7-5c-1,0.7-2.2,1.2-3.8,1.2c-0.1,0-0.2,0-0.2,0c0.8,5.3,3.1,13.4,10.4,16.7
		c0.7,0.1,1.4,0.3,2.2,0.4c0,0,0.7,0.1,1.7,0.3c1.5-0.5,1.6-2.4,1.6-2.4s0.8-0.9,1.3-2.5C366.3,316.9,367.6,313.3,363.3,309.7"/>
	<path class="st0" d="M383.7,326.7c-0.9,0.2-6,1.7-6,1.7c-1.4-0.2-13.6-1.4-15.8-1.8c-0.6,0.2-3.4-0.7-4.5-0.9
		c-0.7-0.2-1.8-0.3-2.4-0.6c-4.7-0.9-8.2-2.5-12.4-3.4c0,0,0-0.1-0.1-0.1c-4.7-0.8-9.2-2.9-13.7-4.5c0.2-6.5-9.7-6.6-9.7-6.6
		c-2-0.8-10.2-4.5-10.2-4.5c10.4-6.4,25.6-30,25.6-30c7.3-10.2,6.3-25.3,6.3-25.3c-1.5-5.4-2.6-23-2.6-23c0.2-1.4,9.3-6.9,9.3-6.9
		c2-1.9,1.9-6.2,1.9-6.2c11-2.8,54-21.2,54.4-21.9c0.4-0.7-1.6-1.3-1.6-1.3l-56.5,11.9c-3.1-3.5-9.1-4.7-9.1-4.7
		c-25.4-4-42.2,14.1-42.2,14.1c-5.7,5.4-8.2,24.8-8.2,24.8c-1.5,4.1-3.7,7.1-3.7,7.1c-6.9,3-13.9,13.9-13.9,13.9
		c-1.5,2-12.5,35.9-17.2,50.7l0.5-2c0,0-4.9,5.9-7.8,6.2c-0.4,0.9-0.6,1.4-0.6,1.4c0,1.5,1.1,1.8,2.5,1.7c0.3,0,0.5-0.1,0.8-0.1
		c0.4,0.6,1.2,1.6,0.3,0.5l-8.1,34.8c0,0,7.5,3.6,12.4-0.6c4.2-3.1,7.2-7.6,7.2-7.6c2.7,0.8,5.4-0.6,5.4-0.6
		c9.8-4.3,23.5-16.3,26.6-19c0.4-0.1,0.9-0.2,1.3-0.2c1.7,1.1,4,1.3,4,1.3c1.1-0.5,2-1.9,2-1.9l2-0.9c2.4,0.2,15.8-0.1,23.1-0.3
		l-1.3,2.5l3.6-0.3c0.7-0.5,1.5-1.7,1.5-1.7l1.8,1c0.2-0.2,0.3-0.8,0.4-1.5c2.8,0.6,9.6,2.9,14.7,4.9c0,0,0,0,0,0
		c0.3,0.1,0.6,0.2,0.9,0.3c0.1,0,0.3,0.1,0.4,0.1l0,0c9.4,3,17.2,4.4,17.2,4.4c1.9,1.6,8,8,8,8c0.1-0.9,1.2-3.8,1.2-3.8
		c0.6-1.2-3-4.1-3-4.1l0-0.5c0.1-0.5,4.9,0.9,4.9,0.9c6.9,1.1,15.9-1.9,15.9-1.9C388.8,327.6,383.7,326.7,383.7,326.7"/>
	<path class="st1" d="M371.2,305.7c-3.4,3.7-8.7,12.9-6.6,15.8c2.5-3.4,7.9-8.9,11.4-10c-3.3,2-6.5,7.4-9,10.7
		c0.6,0.1,1.1,0.2,1.6,0.3c5.3-1.8,10.3-7.5,13.9-11.3c5-5.3,8.5-12.6,15.8-16.5c-3.4,2-9.7,2-13.3,3.3
		C380.4,299.3,375.4,301.1,371.2,305.7"/>
	<path class="st1" d="M347.5,302.1c-2.4-1.3-3.1-3.3-3.1-3.3s-0.5,16.6,10.7,21.8c0.7,0.1,1.4,0.3,2.2,0.4c0,0,0.7,0.1,1.7,0.3
		c1.5-0.6,1.4-2.1,1.4-2.1s1.7,0.1,2.2-1.5c0.6-1.5,1.2-6.3-3.2-10C355.2,303.9,349.9,303.4,347.5,302.1"/>
	<path class="st1" d="M402.4,189.7l-60.3,11.5c-3.1-3.5-9-4.7-9-4.7c-25.4-4-42.2,14.1-42.2,14.1c-5.7,5.4-8.2,24.8-8.2,24.8
		c-1.5,4.1-3.7,7.1-3.7,7.1c-6.9,2.9-13.9,13.9-13.9,13.9c-2,2.6-21.5,56.8-21.5,56.8c2.2,1.1,7.5-4.8,7.5-4.8l-9.5,41.7l3.1,0.6
		c4.2-1.3,10.4-9.3,10.4-9.3c2.7,0.8,4.9-0.8,4.9-0.8c10.1-4.1,24-16,27.2-18.8c0.4-0.1,0.9-0.2,1.3-0.3c1.7,1.1,4,1.3,4,1.3
		c1.1-0.5,2-1.9,2-1.9l2-0.9c2.4,0.2,15.8-0.1,23.1-0.3l-1.3,2.5l3.6-0.3c0.7-0.5,1.5-1.7,1.5-1.7l1.7,1c0.2-0.2,0.3-0.8,0.4-1.5
		c2.8,0.6,9.6,2.9,14.7,4.9c0,0,0,0,0,0.1c0.3,0.1,0.6,0.2,0.9,0.3c0.1,0,0.3,0.1,0.4,0.1l0,0c9.4,3,17.3,4.4,17.3,4.4
		c1.9,1.6,8,8,8,8c0-1,1.1-3.8,1.1-3.8c0.6-1.2-3-4.1-3-4.1l0-0.5c0.1-0.5,4.9,0.9,4.9,0.9c6.9,1.1,15.9-1.9,15.9-1.9
		c-0.6-2.6-5.6-3.5-5.6-3.5c-0.9,0.2-6,1.7-6,1.7c-1.4-0.2-13.6-1.4-15.8-1.8c-0.6,0.2-3.4-0.7-4.5-0.9c-0.7-0.2-1.8-0.3-2.4-0.6
		c-4.7-0.9-8.2-2.4-12.4-3.4c0,0,0-0.1-0.1-0.1c-4.7-0.8-9.2-2.9-13.7-4.5c0.2-6.5-9.7-6.6-9.7-6.6c-2-0.8-10.2-4.5-10.2-4.5
		c10.4-6.4,25.6-29.9,25.6-29.9c7.3-10.2,6.2-25.3,6.2-25.3c-1.5-5.4-2.6-23-2.6-23c0.2-1.4,9.3-6.9,9.3-6.9c2-1.9,1.9-6.2,1.9-6.2
		c11-2.8,56.5-20.6,56.9-21.3C403.1,190.6,402.4,189.7,402.4,189.7 M305.3,308.3c1.6,0.9,6.6,3.1,9.9,4.6
		c-4.5-0.3-12.1-0.4-18.9-0.4l6.1-5.7L305.3,308.3z M256.1,332.5c0-0.1,0-0.1,0-0.2c0,0,0,0,0,0c0,0,0,0,0,0c0,0-0.1,0.1-0.1,0.1
		c0.1-0.8,0.3-1.6,0.5-2.4c2.5-14.6,12.2-38.2,12.2-38.2c-2.8,9,0.4,22.7,0.4,22.7l51.6-40.4C298.2,303.6,256.1,332.5,256.1,332.5
		 M319.9,215.8c-2.2-0.1-4-2.2-3.9-4.7c0.1-2.5,2-4.5,4.2-4.4c2.3,0.1,4,2.2,3.9,4.7C324,213.9,322.1,215.9,319.9,215.8"/>
	<path class="st1" d="M138.6,423.9l-8,1.9l-11.7-12.4l-0.1,0l3.5,14.4l-6.6,1.6l-8.6-35.7l9-2.2c1.7-0.4,3.3-0.6,4.8-0.5
		c1.5,0.1,2.8,0.4,4,1.1c1.2,0.6,2.2,1.6,3.1,2.8c0.9,1.2,1.6,2.8,2,4.7c0.3,1.1,0.4,2.3,0.4,3.5c0,1.2-0.2,2.3-0.6,3.3
		c-0.4,1-0.9,2-1.6,2.8c-0.7,0.8-1.6,1.5-2.7,2L138.6,423.9z M117.6,408.6l0.9-0.2c0.9-0.2,1.7-0.5,2.4-0.8c0.7-0.3,1.3-0.8,1.8-1.4
		c0.5-0.6,0.7-1.2,0.9-2c0.1-0.8,0.1-1.7-0.2-2.8c-0.3-1.1-0.6-2-1.1-2.6c-0.5-0.6-1-1-1.7-1.3c-0.6-0.2-1.4-0.4-2.2-0.3
		c-0.8,0-1.6,0.2-2.5,0.4l-0.9,0.2L117.6,408.6z"/>
	<polygon class="st1" points="141.6,392.2 143.2,400.1 153.9,398 155.1,404.1 144.5,406.2 146.4,416 157.5,413.7 158.7,419.8 
		141,423.4 133.7,387.5 151.4,383.8 152.7,390 	"/>
	<path class="st1" d="M182,388.4c-1.2-1.1-2.5-1.8-3.9-2.3c-1.4-0.4-2.9-0.6-4.4-0.3c-1.6,0.3-3,0.9-4.1,1.8c-1.1,0.9-2,2.1-2.7,3.4
		c-0.7,1.3-1.1,2.8-1.3,4.3c-0.2,1.6-0.2,3.1,0.1,4.7c0.3,1.5,0.7,3,1.5,4.4c0.7,1.4,1.6,2.6,2.7,3.6c1.1,1,2.3,1.7,3.6,2.2
		c1.4,0.5,2.8,0.6,4.4,0.3c1.5-0.2,2.8-0.8,4-1.8c1.2-0.9,2.2-2.1,3-3.3l1.4,8.4c-1.2,0.9-2.4,1.6-3.6,2.2c-1.2,0.6-2.5,1-3.9,1.3
		c-2.4,0.4-4.8,0.3-7-0.4s-4.2-1.7-6-3.2c-1.8-1.5-3.3-3.3-4.5-5.4c-1.2-2.1-2.1-4.4-2.5-6.9c-0.4-2.6-0.4-5.1,0-7.6
		c0.4-2.5,1.2-4.7,2.4-6.8c1.2-2,2.8-3.7,4.7-5.2c1.9-1.4,4.1-2.3,6.7-2.8c1.4-0.2,2.7-0.3,4.1-0.1c1.4,0.2,2.7,0.5,3.9,0.9
		L182,388.4z"/>
	<polygon class="st1" points="183.1,378.4 190.9,377.4 198.7,389.2 203.6,375.7 211.5,374.6 203.2,395.8 205.4,412.5 198.7,413.4 
		196.4,396.7 	"/>
	<path class="st1" d="M238.9,381.7c-1.1-1.1-2.3-2-3.7-2.5c-1.4-0.6-2.8-0.7-4.3-0.6c-1.6,0.2-3,0.7-4.2,1.5
		c-1.2,0.9-2.2,1.9-2.9,3.2c-0.8,1.3-1.3,2.7-1.6,4.2c-0.3,1.5-0.4,3.1-0.2,4.7c0.2,1.5,0.6,3,1.2,4.5c0.6,1.4,1.4,2.7,2.4,3.7
		c1,1.1,2.1,1.9,3.5,2.5c1.3,0.6,2.8,0.8,4.4,0.6c1.5-0.1,2.9-0.6,4.1-1.5c1.3-0.9,2.3-1.9,3.2-3.1l0.8,8.5c-1.2,0.8-2.5,1.4-3.7,2
		c-1.2,0.5-2.6,0.9-4,1c-2.5,0.2-4.8,0-7-0.9c-2.2-0.8-4.1-2-5.8-3.6c-1.7-1.6-3.1-3.5-4.2-5.7c-1.1-2.2-1.8-4.6-2-7.1
		c-0.3-2.6-0.1-5.1,0.5-7.5c0.6-2.4,1.6-4.6,2.9-6.6c1.3-1.9,3-3.6,5-4.8c2-1.3,4.3-2,6.8-2.3c1.4-0.1,2.8-0.1,4.1,0.2
		c1.4,0.2,2.6,0.6,3.9,1.2L238.9,381.7z"/>
	<polygon class="st1" points="252.7,401.5 262.3,400.8 262.8,407 246.3,408.2 243.7,371.6 250.5,371.1 	"/>
	<polygon class="st1" points="270.5,376.1 270.9,384.1 281.7,383.6 282,389.8 271.2,390.4 271.7,400.3 282.9,399.7 283.2,406 
		265.2,406.9 263.3,370.2 281.4,369.3 281.7,375.5 	"/>
	<path class="st1" d="M287.3,369l9.7-0.2c2.5-0.1,4.8,0.4,6.9,1.3c2.1,0.9,3.9,2.1,5.4,3.8c1.5,1.6,2.7,3.5,3.6,5.7
		c0.9,2.2,1.3,4.7,1.4,7.3c0.1,2.6-0.3,5-1.1,7.2c-0.8,2.2-1.9,4.2-3.4,5.9c-1.4,1.7-3.2,3-5.3,4c-2,1-4.3,1.5-6.8,1.6l-9.7,0.2
		L287.3,369z M294.7,399.4l1.1,0c2.1-0.1,3.9-0.4,5.3-1c1.5-0.6,2.6-1.5,3.5-2.5c0.9-1.1,1.6-2.4,2-3.9c0.4-1.5,0.6-3.2,0.5-5
		c-0.1-4-1.1-7-3.1-9c-2-2-4.9-2.9-8.8-2.9l-1.1,0L294.7,399.4z"/>
	<path class="st1" d="M356,378.9c-0.9-1.3-2.1-2.2-3.4-3c-1.3-0.7-2.7-1.1-4.2-1.1c-1.6,0-3.1,0.3-4.4,1c-1.3,0.7-2.4,1.6-3.3,2.8
		c-0.9,1.2-1.6,2.5-2.1,4c-0.5,1.5-0.8,3-0.8,4.6c0,1.6,0.2,3.1,0.6,4.6c0.4,1.5,1.1,2.8,1.9,4c0.9,1.2,1.9,2.1,3.2,2.9
		c1.2,0.7,2.7,1.1,4.2,1.2c1.5,0,2.9-0.3,4.3-1c1.4-0.7,2.6-1.6,3.5-2.7l-0.2,8.5c-1.3,0.6-2.6,1.1-3.9,1.5
		c-1.3,0.4-2.7,0.6-4.1,0.5c-2.5-0.1-4.7-0.6-6.8-1.7c-2.1-1.1-3.8-2.5-5.3-4.3c-1.5-1.8-2.6-3.8-3.4-6.1c-0.8-2.3-1.2-4.8-1.1-7.3
		c0.1-2.6,0.5-5.1,1.4-7.4c0.9-2.4,2.1-4.4,3.7-6.2c1.6-1.8,3.4-3.2,5.6-4.2c2.1-1,4.5-1.5,7.1-1.4c1.4,0,2.7,0.2,4.1,0.7
		c1.3,0.4,2.5,1,3.7,1.7L356,378.9z"/>
	<path class="st1" d="M394.1,389.5c-0.2,2.7-0.7,5.2-1.7,7.5c-0.9,2.3-2.2,4.3-3.8,6c-1.6,1.7-3.5,2.9-5.7,3.8
		c-2.2,0.9-4.6,1.2-7.3,1.1c-2.6-0.2-5-0.8-7.1-1.9c-2.1-1.1-3.8-2.6-5.2-4.4c-1.4-1.8-2.4-4-3.1-6.4c-0.7-2.4-0.9-4.9-0.8-7.6
		c0.2-2.7,0.7-5.2,1.7-7.5c1-2.3,2.3-4.3,3.9-5.9c1.6-1.6,3.5-2.9,5.7-3.7c2.2-0.9,4.6-1.2,7.2-1.1c2.6,0.2,4.9,0.8,7,1.9
		c2.1,1.1,3.8,2.6,5.2,4.4c1.4,1.8,2.5,3.9,3.1,6.3C394,384.2,394.2,386.8,394.1,389.5 M387,388.8c0.1-1.5-0.1-3-0.4-4.4
		c-0.4-1.5-1-2.8-1.8-3.9c-0.8-1.2-1.8-2.1-3.1-2.9c-1.2-0.8-2.6-1.2-4.2-1.3c-1.6-0.1-3.1,0.2-4.4,0.8c-1.3,0.6-2.4,1.4-3.4,2.5
		c-0.9,1.1-1.7,2.3-2.2,3.7c-0.6,1.4-0.9,2.8-1,4.3c-0.1,1.4,0,2.9,0.3,4.4c0.3,1.5,0.8,2.9,1.5,4.2c0.7,1.3,1.7,2.3,3,3.2
		c1.2,0.9,2.8,1.3,4.7,1.5c1.9,0.1,3.5-0.2,4.8-0.9c1.3-0.7,2.5-1.6,3.4-2.8c0.9-1.2,1.5-2.5,2-4C386.7,391.7,387,390.2,387,388.8"
		/>
	<polygon class="st1" points="400.1,370.7 405,371.2 420.8,398.5 420.9,398.5 423.3,374 430.1,374.6 426.4,411.9 421.5,411.4 
		405.7,384.1 405.6,384.1 403.2,408.9 396.4,408.2 	"/>
	<polygon class="st1" points="442.9,413.4 436.1,412.5 440.2,382.3 433.2,381.3 434,375.2 454.7,377.9 453.9,384.1 446.9,383.2 	"/>
	<polygon class="st1" points="464.2,385.7 462.9,393.7 473.7,395.5 472.7,401.6 461.9,399.9 460.4,409.7 471.5,411.5 470.5,417.6 
		452.6,414.8 458.5,378.5 476.3,381.4 475.3,387.5 	"/>
	<polygon class="st1" points="482.6,381.4 487.4,382.4 500.4,411.2 500.5,411.2 505.4,387 512.1,388.3 504.7,425 499.9,424.1 
		486.8,395.3 486.7,395.2 481.8,419.7 475.2,418.4 	"/>
	<polygon class="st1" points="520.8,428.2 514.2,426.6 521.4,397 514.5,395.3 516,389.3 536.4,394.2 534.9,400.3 528,398.6 	"/>
</g>
</svg>
