<?xml version="1.0" encoding="utf-8"?>
<!-- Generator: Adobe Illustrator 24.3.0, SVG Export Plug-In . SVG Version: 6.00 Build 0)  -->
<svg version="1.1" id="Laag_1" xmlns="http://www.w3.org/2000/svg" xmlns:xlink="http://www.w3.org/1999/xlink" x="0px" y="0px"
	 viewBox="0 0 1700.8 1121.4" style="enable-background:new 0 0 1700.8 1121.4;" xml:space="preserve">
<style type="text/css">
	.st0{fill:url(#SVGID_1_);}
	.st1{fill:#FFFFFF;}
</style>
<linearGradient id="SVGID_1_" gradientUnits="userSpaceOnUse" x1="377.367" y1="568.3671" x2="1320.538" y2="568.3671">
	<stop  offset="0" style="stop-color:#5799B7"/>
	<stop  offset="0.7153" style="stop-color:#74AE55"/>
	<stop  offset="0.7492" style="stop-color:#7EB13F"/>
	<stop  offset="1" style="stop-color:#B4C832"/>
</linearGradient>
<path class="st0" d="M1158.1,96.8c-2.9,0-5.8,0.2-8.7,0.6L443.5,184c-41.3,5.1-70.6,42.6-65.5,83.9l86.7,705.9
	c5.1,41.3,42.6,70.6,83.9,65.5l705.9-86.7c41.3-5.1,70.6-42.6,65.5-83.9l-86.7-705.9c-4.7-38-36.8-65.8-74.1-66.1H1158.1z"/>
<g>
	<path class="st1" d="M1237.8,467.5c0-33.6-17.3-50.2-59.8-68.8c-35.2-15.6-46.2-25.6-46.2-46.5c0-19.9,15-35.9,41.9-35.9
		c19.3,0,35.2,6,48.2,14.6l3.3-22.9c-12-7-28.9-12-50.5-12c-37.9,0-65.8,22.9-65.8,57.5c0,32.6,16,47.2,59.8,66.5
		c34.9,15.3,46.2,26.6,46.2,49.2c0,25.9-20.3,41.2-47.2,41.2c-23.3,0-44.5-8.3-58.5-17.3l-3.3,23.3c14.6,8,35.2,14.3,60.8,14.3
		C1206.8,530.7,1237.8,506.7,1237.8,467.5 M1080.5,319.2l-3.3-20.6H908.3v20.6h74.5V528h22.6V319.2H1080.5z M883.7,319.2v-20.6h-115
		V528h22.9V421.9h77.1l-3.3-20.6h-73.8v-82.1H883.7z M704.8,298.6h-22.9V528h22.9V298.6z M621.7,509V407.6h-81.1l3.3,20.6h55.2v68.8
		c-15.3,9.3-30.9,14.3-52.5,14.3c-53.9,0-84.4-38.9-84.4-98.1c0-59.2,30.6-98.4,81.8-98.4c26.3,0,47.2,9.3,64.2,22.9l4-23.6
		c-17.6-12.6-39.6-19.9-67.8-19.9c-64.2,0-105.7,48.9-105.7,119.4c0,70.2,39.9,118.7,107.7,118.7C575.8,532.3,600.4,523,621.7,509"
		/>
	<path class="st1" d="M1184.1,792.6V563.4h-114v232c0,40.1-16.7,63.4-51.2,63.4c-32.3,0-51.7-22.3-51.7-64.5V563.4h-114v229.2
		c0,112.9,70.1,160.2,164.1,160.2C1110.1,952.8,1184.1,904.4,1184.1,792.6 M663.9,804.3h-80.1l80.1-129.6V804.3z M818,876.6v-72.3
		h-49.5V571.2H647.2L495.4,809.3v67.3h168.6v70.7h104.6v-70.7H818z"/>
	<path class="st1" d="M692,270.3c21.8,0,39.5-17.7,39.5-39.5c0-21.8-17.7-39.5-39.5-39.5c-21.8,0-39.5,17.7-39.5,39.5
		C652.5,252.6,670.2,270.3,692,270.3"/>
</g>
</svg>
