<?xml version="1.0" encoding="utf-8"?>
<!-- Generator: Adobe Illustrator 25.4.1, SVG Export Plug-In . SVG Version: 6.00 Build 0)  -->
<svg version="1.1" id="Laag_1" xmlns="http://www.w3.org/2000/svg" xmlns:xlink="http://www.w3.org/1999/xlink" x="0px" y="0px"
	 viewBox="0 0 1700.8 1700.8" style="enable-background:new 0 0 1700.8 1700.8;" xml:space="preserve">
<style type="text/css">
	.st0{fill:url(#SVGID_1_);}
	.st1{fill:#FFFFFF;}
	.st2{fill:url(#SVGID_00000086652888947469075190000011930498816561421737_);}
</style>
<linearGradient id="SVGID_1_" gradientUnits="userSpaceOnUse" x1="86.3094" y1="837.5809" x2="623.5372" y2="837.5809">
	<stop  offset="0" style="stop-color:#049ABA"/>
	<stop  offset="0.7153" style="stop-color:#4DAF4D"/>
	<stop  offset="0.7492" style="stop-color:#62B22F"/>
	<stop  offset="1" style="stop-color:#ADC90E"/>
</linearGradient>
<path class="st0" d="M531,569c-1.6,0-3.3,0.1-5,0.3L124,618.7c-23.5,2.9-40.2,24.3-37.3,47.8l49.4,402.1
	c2.9,23.5,24.3,40.2,47.8,37.3l402.1-49.4c23.5-2.9,40.2-24.3,37.3-47.8l-49.4-402.1c-2.7-21.6-21-37.5-42.2-37.6H531z"/>
<g>
	<path class="st1" d="M576.4,780.1c0-19.1-9.8-28.6-34.1-39.2c-20.1-8.9-26.3-14.6-26.3-26.5c0-11.4,8.5-20.5,23.9-20.5
		c11,0,20.1,3.4,27.5,8.3l1.9-13.1c-6.8-4-16.5-6.8-28.8-6.8c-21.6,0-37.5,13.1-37.5,32.8c0,18.6,9.1,26.9,34.1,37.9
		c19.9,8.7,26.3,15.1,26.3,28c0,14.8-11.6,23.5-26.9,23.5c-13.3,0-25.4-4.7-33.3-9.8l-1.9,13.3c8.3,4.5,20.1,8.1,34.7,8.1
		C558.8,816.1,576.4,802.5,576.4,780.1 M486.8,695.7l-1.9-11.7h-96.2v11.7h42.4v118.9H444V695.7H486.8z M374.7,695.7v-11.7h-65.5
		v130.7h13.1v-60.4h43.9l-1.9-11.7h-42v-46.8H374.7z M272.8,683.9h-13.1v130.7h13.1V683.9z M225.5,803.8V746h-46.2l1.9,11.7h31.4
		V797c-8.7,5.3-17.6,8.1-29.9,8.1c-30.7,0-48.1-22.2-48.1-55.9c0-33.7,17.4-56.1,46.6-56.1c15,0,26.9,5.3,36.5,13.1l2.3-13.4
		c-10-7.2-22.5-11.4-38.6-11.4c-36.5,0-60.2,27.8-60.2,68c0,40,22.7,67.6,61.4,67.6C199.4,817,213.4,811.7,225.5,803.8"/>
	<path class="st1" d="M545.8,965.3V834.7h-65v132.1c0,22.8-9.5,36.1-29.2,36.1c-18.4,0-29.5-12.7-29.5-36.8V834.7h-65v130.6
		c0,64.3,39.9,91.3,93.5,91.3C503.7,1056.6,545.8,1029,545.8,965.3 M249.5,972h-45.6l45.6-73.8V972z M337.3,1013.1V972h-28.2V839.2
		H240l-86.5,135.6v38.3h96v40.2h59.6v-40.2H337.3z"/>
	<path class="st1" d="M265.5,667.8c12.4,0,22.5-10.1,22.5-22.5c0-12.4-10.1-22.5-22.5-22.5c-12.4,0-22.5,10.1-22.5,22.5
		C243,657.7,253.1,667.8,265.5,667.8"/>
</g>
<linearGradient id="SVGID_00000160880008687620317320000014534314624631816084_" gradientUnits="userSpaceOnUse" x1="734.1363" y1="834.7438" x2="1615.174" y2="834.7438">
	<stop  offset="0" style="stop-color:#049ABA"/>
	<stop  offset="0.7153" style="stop-color:#4DAF4D"/>
	<stop  offset="0.7492" style="stop-color:#62B22F"/>
	<stop  offset="1" style="stop-color:#ADC90E"/>
</linearGradient>
<path style="fill:url(#SVGID_00000160880008687620317320000014534314624631816084_);" d="M861.8,813.8v-70.6h36.9v6.3h-29.8v24.2
	h23.5l1,6.3h-24.6v27.4h30.8v6.3H861.8z M920.4,744.1l7-1.4l19.5,28.9l18.7-28.4h7.7l-22.6,33.6l24.7,36.1l-7,1.5
	c0,0-21.6-32.2-21.7-32.2c0-0.1-21,31.6-21,31.6h-7.7l24.9-36.9L920.4,744.1z M1014.8,784.1h-8.8v29.8h-7.1v-70.6h17.5
	c14.2,0,23.1,7.2,23.1,19.9C1039.6,777,1029.2,784.1,1014.8,784.1z M1015.9,749.5h-9.9v28.4h9.1c10.7,0,17.3-4.7,17.3-14.5
	C1032.4,754.2,1026.7,749.5,1015.9,749.5z M1063.7,813.8v-70.6h36.9v6.3h-29.8v24.2h23.5l1,6.3h-24.6v27.4h30.8v6.3H1063.7z
	 M1171.9,813l-7.2,1.5l-22.9-31.9h-9.1v31.2h-7.1v-70.6h18c13.8,0,22.6,7,22.6,19.2c0,11-7.1,17.2-16.8,19.2L1171.9,813z
	 M1143.3,749.5h-10.6v27.1h9.4c10.4,0,17-4.7,17-13.7C1159.1,754.3,1153.5,749.5,1143.3,749.5z M1194.6,813.8v-70.6h7.1v70.6H1194.6
	z M1231.6,813.8v-70.6h36.9v6.3h-29.8v24.2h23.5l1,6.3h-24.6v27.4h30.8v6.3H1231.6z M1341.3,813.8l-41.3-59.5v59.5h-6.7v-70.6h6.7
	l40,57.6v-57.6h6.7v70.6H1341.3z M1404.7,815.2c-19.1,0-32-14.7-32-36.5c0-21.7,13.1-36.8,32.6-36.8c8,0,14.5,2.4,19.9,6l-1.1,7.2
	c-5.5-4-11.7-6.9-18.8-6.9c-15.6,0-25.2,12.3-25.2,30.2c0,18.1,9.7,30.3,25.1,30.3c7.6,0,14.4-3,20.2-7.4l1,6.8
	C1420.9,812.1,1413.1,815.2,1404.7,815.2z M1452.4,813.8v-70.6h36.9v6.3h-29.8v24.2h23.5l1,6.3h-24.6v27.4h30.8v6.3H1452.4z
	 M768.9,905c-6.5,0-12-5.3-12-15.4c0-17.8,11.8-30,24.7-30c5.1,0,9.9,1.4,14.1,3.2l-3.8,24.1c-0.2,1.3-0.5,3.7-0.5,5.9
	c0,4.6,2.6,8,8.1,8c8.5,0,16-9.1,16-26.3c0-21.4-13.1-33.4-33.6-33.4c-24.1,0-43.7,19.8-43.7,48.4c0,23.4,13.8,34.7,34.2,34.7
	c9.8,0,18.5-2.1,25.4-5.7l0.6,3.4c-6.6,3.3-15.9,5.7-26.5,5.7c-23.6,0-37.9-13.7-37.9-38c0-29.7,21-52.1,48.3-52.1
	c23.3,0,37.2,14.4,37.2,36.9c0,19.3-9.2,30.6-21,30.6c-7.3,0-12.6-3.8-13.7-10.2C779.1,901.6,774.6,905,768.9,905z M788.4,866.8
	c-2.5-1.1-4.5-1.6-7.4-1.6c-8.8,0-17.3,9.1-17.3,23.8c0,6.8,2.6,10.1,6.7,10.1c4.2,0,8.5-3.4,14.7-11.1L788.4,866.8z M880.6,889.4
	v29.4h-7.1v-29.3l-25-40.6l7-1.4l21.7,35.8l21.1-35.1h7.7L880.6,889.4z M953,920.1c-18.8,0-31.7-14.9-31.7-36.5
	c0-21.7,13.1-36.8,31.9-36.8c19,0,31.8,14.9,31.8,36.5S972.1,920.1,953,920.1z M953.1,853.2c-14.8,0-24.6,12.3-24.6,30.2
	c0,18.1,9.8,30.4,24.7,30.4c14.8,0,24.6-12.3,24.6-30.2C977.8,865.5,968,853.2,953.1,853.2z M1036.3,919.9
	c-16.6,0-26.4-11.1-26.4-27.5v-44.2h7.1v43.3c0,13.1,6.4,22.1,19.5,22.1c12.7,0,19.6-8.3,19.6-21.7v-43.7h7.1v43.7
	C1063,909,1052.8,919.9,1036.3,919.9z M1137.2,918l-7.2,1.5l-22.9-31.9h-9.1v31.2h-7.1v-70.6h18c13.8,0,22.6,7,22.6,19.2
	c0,11-7.1,17.2-16.8,19.2L1137.2,918z M1108.7,854.4H1098v27.1h9.4c10.4,0,17-4.7,17-13.7C1124.4,859.2,1118.9,854.4,1108.7,854.4z
	 M1208.2,919.6c-7.9,0-14.2-1.9-18.7-4.4l1-7.2c4.3,2.8,10.9,5.3,18,5.3c8.3,0,14.5-4.7,14.5-12.7c0-7-3.5-10.4-14.2-15.2
	c-13.5-5.9-18.4-10.4-18.4-20.5c0-10.6,8.6-17.7,20.3-17.7c6.7,0,11.9,1.5,15.6,3.7l-1,7.1c-4-2.7-8.9-4.5-14.8-4.5
	c-8.3,0-12.9,4.9-12.9,11.1c0,6.4,3.4,9.5,14.2,14.3c13.1,5.7,18.4,10.9,18.4,21.2C1230.1,912.2,1220.6,919.6,1208.2,919.6z
	 M1255.3,918.8v-70.6h36.9v6.3h-29.8v24.2h23.5l1,6.3h-24.6v27.4h30.8v6.3H1255.3z M1363.4,918l-7.2,1.5l-22.9-31.9h-9.1v31.2h-7.1
	v-70.6h18c13.8,0,22.6,7,22.6,19.2c0,11-7.1,17.2-16.8,19.2L1363.4,918z M1334.8,854.4h-10.6v27.1h9.4c10.4,0,17-4.7,17-13.7
	C1350.6,859.2,1345.1,854.4,1334.8,854.4z M1411.6,919.2h-6.3l-27.5-70.2l7-1.5l23.9,62.7l23.4-61.9h7.4L1411.6,919.2z
	 M1463.7,918.8v-70.6h7.1v70.6H1463.7z M1529.6,920.1c-19.1,0-32-14.7-32-36.5c0-21.7,13.1-36.8,32.6-36.8c8,0,14.5,2.4,19.9,6
	l-1.1,7.2c-5.5-4-11.7-6.9-18.8-6.9c-15.6,0-25.2,12.3-25.2,30.2c0,18.1,9.7,30.3,25.1,30.3c7.6,0,14.4-3,20.2-7.4l1,6.8
	C1545.8,917.1,1538,920.1,1529.6,920.1z M1577.3,918.8v-70.6h36.9v6.3h-29.8v24.2h23.5l1,6.3h-24.6v27.4h30.8v6.3H1577.3z"/>
</svg>
