<?xml version="1.0" encoding="utf-8"?>
<!-- Generator: Adobe Illustrator 25.4.1, SVG Export Plug-In . SVG Version: 6.00 Build 0)  -->
<svg version="1.1" id="Laag_1" xmlns="http://www.w3.org/2000/svg" xmlns:xlink="http://www.w3.org/1999/xlink" x="0px" y="0px"
	 viewBox="0 0 1700.8 1700.8" style="enable-background:new 0 0 1700.8 1700.8;" xml:space="preserve">
<style type="text/css">
	.st0{fill:url(#SVGID_1_);}
	.st1{fill:#FFFFFF;}
</style>
<linearGradient id="SVGID_1_" gradientUnits="userSpaceOnUse" x1="377.367" y1="568.3671" x2="1320.538" y2="568.3671">
	<stop  offset="0" style="stop-color:#049ABA"/>
	<stop  offset="0.7153" style="stop-color:#4DAF4D"/>
	<stop  offset="0.7492" style="stop-color:#62B22F"/>
	<stop  offset="1" style="stop-color:#ADC90E"/>
</linearGradient>
<path class="st0" d="M1158.1,96.8c-2.9,0-5.8,0.2-8.7,0.6L443.5,184c-41.3,5.1-70.6,42.6-65.5,83.9l86.7,705.9
	c5.1,41.3,42.6,70.6,83.9,65.5l705.9-86.7c41.3-5.1,70.6-42.6,65.5-83.9l-86.7-705.9c-4.7-38-36.8-65.8-74.1-66.1H1158.1z"/>
<g>
	<path class="st1" d="M1237.8,467.5c0-33.6-17.3-50.2-59.8-68.8c-35.2-15.6-46.2-25.6-46.2-46.5c0-19.9,15-35.9,41.9-35.9
		c19.3,0,35.2,6,48.2,14.6l3.3-22.9c-12-7-28.9-12-50.5-12c-37.9,0-65.8,22.9-65.8,57.5c0,32.6,16,47.2,59.8,66.5
		c34.9,15.3,46.2,26.6,46.2,49.2c0,25.9-20.3,41.2-47.2,41.2c-23.3,0-44.5-8.3-58.5-17.3l-3.3,23.3c14.6,8,35.2,14.3,60.8,14.3
		C1206.8,530.7,1237.8,506.7,1237.8,467.5 M1080.5,319.2l-3.3-20.6H908.3v20.6h74.5V528h22.6V319.2H1080.5z M883.7,319.2v-20.6h-115
		V528h22.9V421.9h77.1l-3.3-20.6h-73.8v-82.1H883.7z M704.8,298.6h-22.9V528h22.9V298.6z M621.7,509V407.6h-81.1l3.3,20.6h55.2v68.8
		c-15.3,9.3-30.9,14.3-52.5,14.3c-53.9,0-84.4-38.9-84.4-98.1c0-59.2,30.6-98.4,81.8-98.4c26.3,0,47.2,9.3,64.2,22.9l4-23.6
		c-17.6-12.6-39.6-19.9-67.8-19.9c-64.2,0-105.7,48.9-105.7,119.4c0,70.2,39.9,118.7,107.7,118.7C575.8,532.3,600.4,523,621.7,509"
		/>
	<path class="st1" d="M1184.1,792.6V563.4h-114v232c0,40.1-16.7,63.4-51.2,63.4c-32.3,0-51.7-22.3-51.7-64.5V563.4h-114v229.2
		c0,112.9,70.1,160.2,164.1,160.2C1110.1,952.8,1184.1,904.4,1184.1,792.6 M663.9,804.3h-80.1l80.1-129.6V804.3z M818,876.6v-72.3
		h-49.5V571.2H647.2L495.4,809.3v67.3h168.6v70.7h104.6v-70.7H818z"/>
	<path class="st1" d="M692,270.3c21.8,0,39.5-17.7,39.5-39.5c0-21.8-17.7-39.5-39.5-39.5c-21.8,0-39.5,17.7-39.5,39.5
		C652.5,252.6,670.2,270.3,692,270.3"/>
</g>
<path class="st1" d="M302.5,1310.6v-124h64.7v11.1h-52.3v42.4h41.3l1.8,11.1h-43.1v48.2H369v11.1H302.5z M405.3,1188.2l12.2-2.5
	l34.1,50.7l32.9-49.8h13.5l-39.7,59l43.3,63.4l-12.2,2.7c0,0-37.9-56.6-38.1-56.6c0-0.2-36.8,55.5-36.8,55.5H401l43.7-64.7
	L405.3,1188.2z M571.1,1258.3h-15.5v52.3h-12.4v-124h30.7c25,0,40.6,12.6,40.6,34.9C614.6,1245.9,596.4,1258.3,571.1,1258.3z
	 M573,1197.6h-17.4v49.8h16c18.9,0,30.4-8.3,30.4-25.5C602,1205.9,591.9,1197.6,573,1197.6z M657,1310.6v-124h64.7v11.1h-52.3v42.4
	h41.3l1.8,11.1h-43.1v48.2h54.1v11.1H657z M846.8,1309.2l-12.6,2.7l-40.3-56.1h-16v54.8h-12.4v-124h31.6c24.3,0,39.7,12.2,39.7,33.8
	c0,19.2-12.4,30.2-29.5,33.8L846.8,1309.2z M796.7,1197.6H778v47.6h16.5c18.3,0,29.8-8.3,29.8-24.1
	C824.3,1206,814.6,1197.6,796.7,1197.6z M886.7,1310.6v-124h12.4v124H886.7z M951.6,1310.6v-124h64.7v11.1H964v42.4h41.3l1.8,11.1
	H964v48.2h54.1v11.1H951.6z M1144.3,1310.6l-72.4-104.4v104.4h-11.7v-124h11.7l70.3,101.2v-101.2h11.7v124H1144.3z M1255.6,1313
	c-33.6,0-56.3-25.9-56.3-64.2c0-38.1,23-64.5,57.2-64.5c14,0,25.5,4.1,34.9,10.6l-2,12.6c-9.7-7-20.5-12-33.1-12
	c-27.3,0-44.2,21.6-44.2,53c0,31.8,17.1,53.2,44,53.2c13.3,0,25.3-5.2,35.4-12.9l1.8,11.9C1284,1307.6,1270.3,1313,1255.6,1313z
	 M1339.4,1310.6v-124h64.7v11.1h-52.3v42.4h41.3l1.8,11.1h-43.1v48.2h54.1v11.1H1339.4z M139.3,1470.7c-11.4,0-21.1-9.3-21.1-27.1
	c0-31.2,20.7-52.7,43.4-52.7c8.9,0,17.4,2.5,24.8,5.6l-6.6,42.4c-0.4,2.3-0.8,6.4-0.8,10.3c0,8.1,4.5,14.1,14.3,14.1
	c14.9,0,28.1-15.9,28.1-46.1c0-37.6-22.9-58.7-58.9-58.7c-42.4,0-76.7,34.7-76.7,85c0,41.1,24.2,61,60,61c17.2,0,32.5-3.7,44.7-9.9
	l1,6c-11.6,5.8-27.9,9.9-46.5,9.9c-41.3,0-66.6-24-66.6-66.8c0-52.1,36.8-91.4,84.8-91.4c40.9,0,65.3,25.2,65.3,64.7
	c0,33.9-16.1,53.8-36.8,53.8c-12.8,0-22.1-6.6-24-18C157.3,1464.7,149.4,1470.7,139.3,1470.7z M173.6,1403.7
	c-4.3-1.9-7.9-2.9-13-2.9c-15.5,0-30.4,15.9-30.4,41.8c0,12,4.5,17.8,11.8,17.8c7.4,0,14.9-6,25.8-19.4L173.6,1403.7z M335.5,1443.3
	v51.6h-12.4v-51.4l-43.9-71.4l12.2-2.5l38.1,62.9l37-61.6h13.5L335.5,1443.3z M462.6,1497.2c-33.1,0-55.7-26.2-55.7-64.2
	c0-38.1,23-64.5,56.1-64.5c33.4,0,55.9,26.2,55.9,64.2S496,1497.2,462.6,1497.2z M462.8,1379.7c-26.1,0-43.1,21.6-43.1,53
	c0,31.8,17.3,53.4,43.3,53.4c26.1,0,43.1-21.6,43.1-53C506.1,1401.3,488.8,1379.7,462.8,1379.7z M608.8,1496.9
	c-29.1,0-46.4-19.4-46.4-48.3v-77.6h12.4v76c0,23,11.3,38.8,34.1,38.8c22.3,0,34.3-14.6,34.3-38.1v-76.7h12.4v76.7
	C655.7,1477.6,637.9,1496.9,608.8,1496.9z M786,1493.5l-12.6,2.7l-40.3-56.1h-16v54.8h-12.4v-124h31.6c24.3,0,39.7,12.2,39.7,33.8
	c0,19.2-12.4,30.2-29.5,33.8L786,1493.5z M735.8,1381.8h-18.7v47.6h16.5c18.3,0,29.8-8.3,29.8-24.1
	C763.5,1390.3,753.8,1381.8,735.8,1381.8z M910.6,1496.3c-13.8,0-25-3.4-32.9-7.7l1.8-12.6c7.5,4.9,19.1,9.3,31.6,9.3
	c14.6,0,25.5-8.3,25.5-22.3c0-12.2-6.1-18.3-25-26.6c-23.7-10.4-32.4-18.3-32.4-35.9c0-18.7,15.1-31.1,35.6-31.1
	c11.7,0,20.8,2.7,27.3,6.5l-1.8,12.4c-7-4.7-15.6-7.9-26.1-7.9c-14.6,0-22.6,8.6-22.6,19.4c0,11.3,5.9,16.7,25,25.2
	c23,10.1,32.4,19.1,32.4,37.2C949,1483.4,932.3,1496.3,910.6,1496.3z M993.3,1494.9v-124h64.7v11.1h-52.3v42.4h41.3l1.8,11.1h-43.1
	v48.2h54.1v11.1H993.3z M1183.1,1493.5l-12.6,2.7l-40.3-56.1h-16v54.8h-12.4v-124h31.6c24.3,0,39.7,12.2,39.7,33.8
	c0,19.2-12.4,30.2-29.5,33.8L1183.1,1493.5z M1132.9,1381.8h-18.7v47.6h16.5c18.3,0,29.8-8.3,29.8-24.1
	C1160.6,1390.3,1150.9,1381.8,1132.9,1381.8z M1267.7,1495.6h-11.1l-48.3-123.3l12.2-2.7l41.9,110l41.2-108.7h12.9L1267.7,1495.6z
	 M1359.2,1494.9v-124h12.4v124H1359.2z M1474.8,1497.2c-33.6,0-56.3-25.9-56.3-64.2c0-38.1,23-64.5,57.2-64.5
	c14,0,25.5,4.1,34.9,10.6l-2,12.6c-9.7-7-20.5-12-33.1-12c-27.3,0-44.2,21.6-44.2,53c0,31.8,17.1,53.2,44,53.2
	c13.3,0,25.3-5.2,35.4-12.9l1.8,11.9C1503.2,1491.8,1489.6,1497.2,1474.8,1497.2z M1558.6,1494.9v-124h64.7v11.1H1571v42.4h41.3
	l1.8,11.1H1571v48.2h54.1v11.1H1558.6z"/>
</svg>
